<svg xmlns="http://www.w3.org/2000/svg" xmlns:xlink="http://www.w3.org/1999/xlink" width="25" zoomAndPan="magnify" viewBox="0 0 384 383.999986" height="25" preserveAspectRatio="xMidYMid meet" version="1.0"><defs><clipPath id="ce04a46d75"><path d="M 57.027344 0 L 326.972656 0 L 326.972656 384 L 57.027344 384 Z M 57.027344 0 " clip-rule="nonzero" /></clipPath><clipPath id="15b142ab00"><path d="M 289.027344 270.890625 C 288.269531 272.148438 287.503906 273.40625 286.734375 274.664062 C 281.828125 283.152344 276.847656 291.597656 272.039062 300.140625 C 270.605469 302.6875 268.6875 304.5 266.195312 305.933594 C 244.46875 318.414062 222.78125 330.957031 201.058594 343.433594 C 199.457031 344.351562 198.464844 345.351562 198 347.289062 C 196.265625 354.542969 190.722656 359.257812 183.601562 359.90625 C 176.953125 360.511719 170.660156 356.960938 167.558594 350.84375 C 164.550781 344.898438 165.621094 337.046875 170.625 332.152344 C 175.066406 327.808594 180.597656 326.25 186.648438 328.144531 C 188.746094 328.800781 190.261719 328.582031 192.085938 327.515625 C 212.957031 315.355469 233.878906 303.269531 254.78125 291.15625 C 255.660156 290.644531 256.550781 290.226562 257.105469 289.238281 C 262.417969 279.816406 267.777344 270.429688 273.128906 261.035156 C 274.089844 259.511719 275.371094 258.160156 275.570312 256.253906 C 276.257812 255.917969 276.59375 255.296875 276.960938 254.652344 C 286.953125 237.273438 296.972656 219.894531 306.996094 202.53125 C 307.582031 201.523438 307.894531 200.511719 307.894531 199.324219 C 307.867188 171.34375 307.867188 143.371094 307.882812 115.390625 C 307.882812 114.34375 307.835938 113.402344 307.058594 112.519531 C 302.191406 107.015625 297.378906 101.472656 292.546875 95.9375 C 291.414062 94.382812 290.3125 92.800781 288.671875 91.703125 C 288.15625 90.960938 287.703125 90.164062 287.109375 89.476562 C 278.972656 80.058594 270.753906 70.714844 262.738281 61.191406 C 261.21875 59.394531 260.277344 59.625 258.542969 60.625 C 222.054688 81.757812 185.527344 102.84375 149.011719 123.9375 C 148.21875 124.390625 147.273438 124.660156 146.78125 125.621094 C 157.839844 131.925781 168.921875 138.167969 179.914062 144.578125 C 181.714844 145.625 182.960938 145.457031 184.636719 144.484375 C 199.679688 135.769531 214.8125 127.195312 229.828125 118.425781 C 234.253906 115.839844 238.300781 115.792969 242.636719 118.5 C 246.589844 120.960938 250.726562 123.109375 254.789062 125.394531 C 256.53125 126.40625 258.28125 127.40625 260.027344 128.417969 C 261.953125 129.570312 263.816406 130.847656 265.816406 131.855469 C 270.46875 134.21875 272.480469 137.867188 272.457031 143.125 C 272.375 161.367188 272.363281 179.617188 272.667969 197.859375 C 272.761719 203.578125 271.578125 208.519531 268.492188 213.378906 C 263.683594 220.960938 259.410156 228.886719 254.90625 236.667969 C 254.035156 237.59375 253.398438 238.667969 253.003906 239.875 C 250.183594 244.566406 247.296875 249.226562 244.574219 253.96875 C 243.242188 256.285156 241.523438 258.054688 239.207031 259.382812 C 222.171875 269.183594 205.175781 279.0625 188.128906 288.839844 C 180.441406 293.242188 173.300781 289.175781 173.203125 280.292969 C 173.039062 265.582031 173.054688 250.871094 172.976562 236.164062 C 172.972656 234.953125 173.265625 233.671875 172 232.78125 C 168.984375 230.648438 167.515625 227.472656 166.28125 224.152344 C 166.164062 222.105469 166.039062 220.070312 165.917969 218.027344 C 167.472656 209.972656 172.394531 205.308594 180.335938 203.679688 C 182.15625 203.804688 183.976562 203.933594 185.789062 204.058594 C 186.558594 204.34375 187.339844 204.617188 188.105469 204.917969 C 198.621094 209.003906 202.015625 222.660156 194.222656 230.8125 C 191.941406 233.195312 191.351562 235.421875 191.394531 238.429688 C 191.527344 247.191406 191.4375 255.957031 191.4375 264.839844 C 192.03125 264.753906 192.367188 264.796875 192.597656 264.660156 C 204.292969 257.914062 215.972656 251.152344 227.667969 244.40625 C 228.394531 243.988281 229.027344 243.527344 229.460938 242.773438 C 232.640625 237.234375 235.828125 231.707031 239.019531 226.183594 C 239.871094 224.753906 240.71875 223.320312 241.574219 221.894531 C 245.5 215.328125 249.390625 208.738281 253.375 202.203125 C 254.144531 200.929688 254.082031 199.648438 254.078125 198.3125 C 253.988281 182.851562 253.898438 167.394531 253.816406 151.929688 C 253.785156 145.84375 253.097656 144.820312 247.242188 142.640625 C 246.75 142.460938 246.332031 142.335938 246.027344 141.910156 C 244.457031 140.984375 242.894531 140.0625 241.324219 139.132812 C 239.996094 138.335938 238.65625 137.558594 237.347656 136.726562 C 236.527344 136.210938 235.835938 136.082031 234.886719 136.636719 C 219 145.9375 203.089844 155.195312 187.175781 164.464844 C 185.144531 165.09375 183.160156 165.953125 180.953125 165.753906 C 179.253906 165.269531 177.707031 164.472656 176.179688 163.585938 C 165.625 157.46875 155.058594 151.382812 144.488281 145.292969 C 142.203125 143.980469 139.882812 142.710938 137.265625 141.246094 C 137.265625 142.789062 137.265625 143.910156 137.265625 145.027344 C 137.265625 168.964844 137.253906 192.898438 137.273438 216.835938 C 137.28125 226.15625 137.339844 235.484375 137.378906 244.804688 C 137.390625 246.878906 137.398438 248.960938 137.410156 251.035156 C 137.359375 253.621094 137.273438 256.210938 137.273438 258.796875 C 137.265625 296.863281 137.273438 334.9375 137.265625 373.003906 C 137.265625 379.542969 134.164062 383.496094 128.730469 383.957031 C 126.488281 384.148438 124.445312 383.519531 122.507812 382.40625 C 105.195312 372.410156 87.878906 362.410156 70.546875 352.449219 C 66.808594 350.300781 64.804688 347.214844 64.835938 342.847656 C 64.867188 338.804688 64.839844 334.753906 64.839844 330.710938 C 64.839844 279.15625 64.835938 227.609375 64.859375 176.054688 C 64.859375 172.851562 64.558594 170.320312 61.929688 167.59375 C 55.144531 160.546875 56.703125 149.214844 64.535156 143.539062 C 72.050781 138.09375 82.648438 140.273438 87.875 148.339844 C 91.929688 154.597656 90.714844 163.761719 85.121094 168.769531 C 84.03125 169.75 83.15625 170.566406 83.15625 172.316406 C 83.238281 214.425781 83.230469 256.542969 83.25 298.652344 C 83.25 298.75 83.277344 298.855469 83.292969 298.957031 C 83.300781 301.039062 83.3125 303.125 83.320312 305.207031 C 83.28125 315.765625 83.289062 326.332031 83.171875 336.894531 C 83.152344 338.492188 84.035156 338.96875 85.140625 339.609375 C 95.59375 345.660156 106.027344 351.746094 116.488281 357.796875 C 117.144531 358.175781 117.710938 358.996094 118.800781 358.519531 C 118.800781 335.882812 118.808594 313.199219 118.792969 290.515625 C 118.789062 284.199219 118.730469 277.886719 118.699219 271.570312 C 118.683594 269.496094 118.667969 267.414062 118.652344 265.339844 C 118.699219 263.269531 118.792969 261.203125 118.792969 259.132812 C 118.800781 217.355469 118.777344 175.574219 118.867188 133.800781 C 118.875 131.363281 118.078125 130.175781 116.039062 129.023438 C 101.09375 120.5625 86.214844 111.980469 71.332031 103.414062 C 62.578125 98.382812 62.617188 90.25 71.375 85.167969 C 77.542969 81.585938 83.675781 77.945312 89.816406 74.332031 C 91.0625 73.902344 92.222656 73.3125 93.195312 72.40625 C 105.5 65.378906 117.816406 58.382812 130.101562 51.324219 C 150.199219 39.792969 170.25 28.183594 190.355469 16.671875 C 192.011719 15.71875 192.839844 14.636719 193.265625 12.722656 C 195.207031 3.820312 204.578125 -1.824219 213.195312 0.535156 C 222.390625 3.058594 227.398438 12.019531 224.675781 21.089844 C 222.035156 29.890625 212.695312 34.726562 203.925781 31.628906 C 202.148438 31 201.019531 31.488281 199.644531 32.285156 C 170.292969 49.269531 140.929688 66.234375 111.566406 83.203125 C 110.152344 84.019531 108.765625 84.894531 107.363281 85.738281 C 105.898438 86.667969 104.117188 87.046875 102.894531 88.386719 C 99.492188 90.28125 96.085938 92.183594 92.421875 94.226562 C 104.054688 100.984375 115.316406 107.527344 126.570312 114.105469 C 127.851562 114.859375 128.867188 114.765625 129.789062 113.609375 C 131.074219 113.210938 132.214844 112.5625 133.210938 111.65625 C 145.660156 104.503906 158.121094 97.382812 170.542969 90.199219 C 199.203125 73.628906 227.84375 57.019531 256.496094 40.429688 C 262.382812 37.019531 266.816406 37.835938 271.308594 43.011719 C 281.621094 54.894531 291.957031 66.75 302.285156 78.613281 C 302.855469 79.609375 303.589844 80.46875 304.535156 81.128906 C 310.734375 88.339844 316.867188 95.601562 323.164062 102.730469 C 325.371094 105.222656 326.355469 107.957031 326.355469 111.210938 C 326.335938 141.5 326.335938 171.796875 326.359375 202.089844 C 326.359375 204.875 325.582031 207.316406 324.179688 209.726562 C 312.574219 229.707031 301.035156 249.71875 289.484375 269.730469 C 289.277344 270.085938 289.183594 270.496094 289.035156 270.882812 " clip-rule="nonzero" /></clipPath><clipPath id="ce4277ddd3"><path d="M 0.601562 0 L 269.398438 0 L 269.398438 384 L 0.601562 384 Z M 0.601562 0 " clip-rule="nonzero" /></clipPath><clipPath id="0a721f3821"><path d="M 232.027344 270.890625 C 231.269531 272.148438 230.503906 273.40625 229.734375 274.664062 C 224.828125 283.152344 219.847656 291.597656 215.039062 300.140625 C 213.605469 302.6875 211.6875 304.5 209.195312 305.933594 C 187.46875 318.414062 165.78125 330.957031 144.058594 343.433594 C 142.457031 344.351562 141.464844 345.351562 141 347.289062 C 139.265625 354.542969 133.722656 359.257812 126.601562 359.90625 C 119.953125 360.511719 113.660156 356.960938 110.558594 350.84375 C 107.550781 344.898438 108.621094 337.046875 113.625 332.152344 C 118.066406 327.808594 123.597656 326.25 129.648438 328.144531 C 131.746094 328.800781 133.261719 328.582031 135.085938 327.515625 C 155.957031 315.355469 176.878906 303.269531 197.78125 291.15625 C 198.660156 290.644531 199.550781 290.226562 200.105469 289.238281 C 205.417969 279.816406 210.777344 270.429688 216.128906 261.035156 C 217.089844 259.511719 218.371094 258.160156 218.570312 256.253906 C 219.257812 255.917969 219.59375 255.296875 219.960938 254.652344 C 229.953125 237.273438 239.972656 219.894531 249.996094 202.53125 C 250.582031 201.523438 250.894531 200.511719 250.894531 199.324219 C 250.867188 171.34375 250.867188 143.371094 250.882812 115.390625 C 250.882812 114.34375 250.835938 113.402344 250.058594 112.519531 C 245.191406 107.015625 240.378906 101.472656 235.546875 95.9375 C 234.414062 94.382812 233.3125 92.800781 231.671875 91.703125 C 231.15625 90.960938 230.703125 90.164062 230.109375 89.476562 C 221.972656 80.058594 213.753906 70.714844 205.738281 61.191406 C 204.21875 59.394531 203.277344 59.625 201.542969 60.625 C 165.054688 81.757812 128.527344 102.84375 92.011719 123.9375 C 91.21875 124.390625 90.273438 124.660156 89.78125 125.621094 C 100.839844 131.925781 111.921875 138.167969 122.914062 144.578125 C 124.714844 145.625 125.960938 145.457031 127.636719 144.484375 C 142.679688 135.769531 157.8125 127.195312 172.828125 118.425781 C 177.253906 115.839844 181.300781 115.792969 185.636719 118.5 C 189.589844 120.960938 193.726562 123.109375 197.789062 125.394531 C 199.53125 126.40625 201.28125 127.40625 203.027344 128.417969 C 204.953125 129.570312 206.816406 130.847656 208.816406 131.855469 C 213.46875 134.21875 215.480469 137.867188 215.457031 143.125 C 215.375 161.367188 215.363281 179.617188 215.667969 197.859375 C 215.761719 203.578125 214.578125 208.519531 211.492188 213.378906 C 206.683594 220.960938 202.410156 228.886719 197.90625 236.667969 C 197.035156 237.59375 196.398438 238.667969 196.003906 239.875 C 193.183594 244.566406 190.296875 249.226562 187.574219 253.96875 C 186.242188 256.285156 184.523438 258.054688 182.207031 259.382812 C 165.171875 269.183594 148.175781 279.0625 131.128906 288.839844 C 123.441406 293.242188 116.300781 289.175781 116.203125 280.292969 C 116.039062 265.582031 116.054688 250.871094 115.976562 236.164062 C 115.972656 234.953125 116.265625 233.671875 115 232.78125 C 111.984375 230.648438 110.515625 227.472656 109.28125 224.152344 C 109.164062 222.105469 109.039062 220.070312 108.917969 218.027344 C 110.472656 209.972656 115.394531 205.308594 123.335938 203.679688 C 125.15625 203.804688 126.976562 203.933594 128.789062 204.058594 C 129.558594 204.34375 130.339844 204.617188 131.105469 204.917969 C 141.621094 209.003906 145.015625 222.660156 137.222656 230.8125 C 134.941406 233.195312 134.351562 235.421875 134.394531 238.429688 C 134.527344 247.191406 134.4375 255.957031 134.4375 264.839844 C 135.03125 264.753906 135.367188 264.796875 135.597656 264.660156 C 147.292969 257.914062 158.972656 251.152344 170.667969 244.40625 C 171.394531 243.988281 172.027344 243.527344 172.460938 242.773438 C 175.640625 237.234375 178.828125 231.707031 182.019531 226.183594 C 182.871094 224.753906 183.71875 223.320312 184.574219 221.894531 C 188.5 215.328125 192.390625 208.738281 196.375 202.203125 C 197.144531 200.929688 197.082031 199.648438 197.078125 198.3125 C 196.988281 182.851562 196.898438 167.394531 196.816406 151.929688 C 196.785156 145.84375 196.097656 144.820312 190.242188 142.640625 C 189.75 142.460938 189.332031 142.335938 189.027344 141.910156 C 187.457031 140.984375 185.894531 140.0625 184.324219 139.132812 C 182.996094 138.335938 181.65625 137.558594 180.347656 136.726562 C 179.527344 136.210938 178.835938 136.082031 177.886719 136.636719 C 162 145.9375 146.089844 155.195312 130.175781 164.464844 C 128.144531 165.09375 126.160156 165.953125 123.953125 165.753906 C 122.253906 165.269531 120.707031 164.472656 119.179688 163.585938 C 108.625 157.46875 98.058594 151.382812 87.488281 145.292969 C 85.203125 143.980469 82.882812 142.710938 80.265625 141.246094 C 80.265625 142.789062 80.265625 143.910156 80.265625 145.027344 C 80.265625 168.964844 80.253906 192.898438 80.273438 216.835938 C 80.28125 226.15625 80.339844 235.484375 80.378906 244.804688 C 80.390625 246.878906 80.398438 248.960938 80.410156 251.035156 C 80.359375 253.621094 80.273438 256.210938 80.273438 258.796875 C 80.265625 296.863281 80.273438 334.9375 80.265625 373.003906 C 80.265625 379.542969 77.164062 383.496094 71.730469 383.957031 C 69.488281 384.148438 67.445312 383.519531 65.507812 382.40625 C 48.195312 372.410156 30.878906 362.410156 13.546875 352.449219 C 9.808594 350.300781 7.804688 347.214844 7.835938 342.847656 C 7.867188 338.804688 7.839844 334.753906 7.839844 330.710938 C 7.839844 279.15625 7.835938 227.609375 7.859375 176.054688 C 7.859375 172.851562 7.558594 170.320312 4.929688 167.59375 C -1.855469 160.546875 -0.296875 149.214844 7.535156 143.539062 C 15.050781 138.09375 25.648438 140.273438 30.875 148.339844 C 34.929688 154.597656 33.714844 163.761719 28.121094 168.769531 C 27.03125 169.75 26.15625 170.566406 26.15625 172.316406 C 26.238281 214.425781 26.230469 256.542969 26.25 298.652344 C 26.25 298.75 26.277344 298.855469 26.292969 298.957031 C 26.300781 301.039062 26.3125 303.125 26.320312 305.207031 C 26.28125 315.765625 26.289062 326.332031 26.171875 336.894531 C 26.152344 338.492188 27.035156 338.96875 28.140625 339.609375 C 38.59375 345.660156 49.027344 351.746094 59.488281 357.796875 C 60.144531 358.175781 60.710938 358.996094 61.800781 358.519531 C 61.800781 335.882812 61.808594 313.199219 61.792969 290.515625 C 61.789062 284.199219 61.730469 277.886719 61.699219 271.570312 C 61.683594 269.496094 61.667969 267.414062 61.652344 265.339844 C 61.699219 263.269531 61.792969 261.203125 61.792969 259.132812 C 61.800781 217.355469 61.777344 175.574219 61.867188 133.800781 C 61.875 131.363281 61.078125 130.175781 59.039062 129.023438 C 44.09375 120.5625 29.214844 111.980469 14.332031 103.414062 C 5.578125 98.382812 5.617188 90.25 14.375 85.167969 C 20.542969 81.585938 26.675781 77.945312 32.816406 74.332031 C 34.0625 73.902344 35.222656 73.3125 36.195312 72.40625 C 48.5 65.378906 60.816406 58.382812 73.101562 51.324219 C 93.199219 39.792969 113.25 28.183594 133.355469 16.671875 C 135.011719 15.71875 135.839844 14.636719 136.265625 12.722656 C 138.207031 3.820312 147.578125 -1.824219 156.195312 0.535156 C 165.390625 3.058594 170.398438 12.019531 167.675781 21.089844 C 165.035156 29.890625 155.695312 34.726562 146.925781 31.628906 C 145.148438 31 144.019531 31.488281 142.644531 32.285156 C 113.292969 49.269531 83.929688 66.234375 54.566406 83.203125 C 53.152344 84.019531 51.765625 84.894531 50.363281 85.738281 C 48.898438 86.667969 47.117188 87.046875 45.894531 88.386719 C 42.492188 90.28125 39.085938 92.183594 35.421875 94.226562 C 47.054688 100.984375 58.316406 107.527344 69.570312 114.105469 C 70.851562 114.859375 71.867188 114.765625 72.789062 113.609375 C 74.074219 113.210938 75.214844 112.5625 76.210938 111.65625 C 88.660156 104.503906 101.121094 97.382812 113.542969 90.199219 C 142.203125 73.628906 170.84375 57.019531 199.496094 40.429688 C 205.382812 37.019531 209.816406 37.835938 214.308594 43.011719 C 224.621094 54.894531 234.957031 66.75 245.285156 78.613281 C 245.855469 79.609375 246.589844 80.46875 247.535156 81.128906 C 253.734375 88.339844 259.867188 95.601562 266.164062 102.730469 C 268.371094 105.222656 269.355469 107.957031 269.355469 111.210938 C 269.335938 141.5 269.335938 171.796875 269.359375 202.089844 C 269.359375 204.875 268.582031 207.316406 267.179688 209.726562 C 255.574219 229.707031 244.035156 249.71875 232.484375 269.730469 C 232.277344 270.085938 232.183594 270.496094 232.035156 270.882812 " clip-rule="nonzero" /></clipPath><clipPath id="fe7c341538"><rect x="0" width="270" y="0" height="384" /></clipPath></defs><g clip-path="url(#ce04a46d75)"><g clip-path="url(#15b142ab00)"><g transform="matrix(1, 0, 0, 1, 57, 0)"><g clip-path="url(#fe7c341538)"><g clip-path="url(#ce4277ddd3)"><g clip-path="url(#0a721f3821)"><path fill="#ffffff" d="M 0.652344 0 L 269.347656 0 L 269.347656 383.765625 L 0.652344 383.765625 Z M 0.652344 0 " fill-opacity="1" fill-rule="nonzero" /></g></g></g></g></g></g></svg>